<?xml version="1.0" encoding="utf-8"?>
<!-- Generator: Adobe Illustrator 24.2.1, SVG Export Plug-In . SVG Version: 6.00 Build 0)  -->
<svg version="1.1"
	 id="svg2" xmlns:cc="http://creativecommons.org/ns#" xmlns:dc="http://purl.org/dc/elements/1.1/" xmlns:inkscape="http://www.inkscape.org/namespaces/inkscape" xmlns:rdf="http://www.w3.org/1999/02/22-rdf-syntax-ns#" xmlns:sodipodi="http://sodipodi.sourceforge.net/DTD/sodipodi-0.dtd" xmlns:svg="http://www.w3.org/2000/svg"
	 xmlns="http://www.w3.org/2000/svg" xmlns:xlink="http://www.w3.org/1999/xlink" x="0px" y="0px" viewBox="0 0 188.4 160.8"
	 style="enable-background:new 0 0 188.4 160.8;" xml:space="preserve">
<style type="text/css">
	.st0{fill:#64A300;}
</style>
<sodipodi:namedview  bordercolor="#666666" borderlayer="true" borderopacity="1" gridtolerance="10" guidetolerance="10" id="namedview4" inkscape:current-layer="svg2" inkscape:cx="131.7614" inkscape:cy="97.25477" inkscape:guide-bbox="true" inkscape:object-nodes="true" inkscape:pageopacity="0" inkscape:pageshadow="2" inkscape:snap-page="true" inkscape:snap-to-guides="true" inkscape:window-height="1024" inkscape:window-maximized="1" inkscape:window-width="1920" inkscape:window-x="-4" inkscape:window-y="-4" inkscape:zoom="2.4054371" objecttolerance="10" pagecolor="#ffffff" showgrid="false" showguides="true">
	</sodipodi:namedview>
<g id="g3857" transform="scale(0.09009009,0.09009009)">
	<path id="path3795" inkscape:connector-curvature="0" sodipodi:nodetypes="cccccccsssc" class="st0" d="M258.8,1049h371.4
		l438.6-599.2l267.8,367.1l-353.5-0.2l-170,232.3h1046.4l-582.2-821.2c-56.8-80.1-136-121.2-208.5-122
		c-71.1-0.8-146.3,37.4-208.4,122.3L258.8,1049z"/>
	<path id="rect3815" inkscape:connector-curvature="0" sodipodi:nodetypes="sscccccccsssccs" class="st0" d="M227.1,1344.2
		c-64.2,0-119.2,63.7-119.4,128.8c-0.3,77.9,53.5,145.8,115.8,145.8h215.9v-159.9h-184v46.1h137.9v68H235.5
		c-52.6,0-82.9-49.1-81.9-96.3c1-44.2,34.6-86.8,82-86.8h180.8v-45.8H227.1z"/>
	<path id="rect3830" inkscape:connector-curvature="0" sodipodi:nodetypes="cccccccccccccc" class="st0" d="M1368,1344.2v274.6
		h253.1v-45.9h-207.3V1390h206.7v-45.8H1368z M1437.1,1458.9v45.8h160.6v-45.8H1437.1z"/>
	<path id="rect3842" inkscape:connector-curvature="0" sodipodi:nodetypes="ssssccsssssccsss" class="st0" d="M1912.6,1458.8h-150.5
		c-27.1,0-40.3-17.7-39.8-35.2c0.5-15.6,15.6-33.6,36.6-33.6h204.6v-45.8l-219.5,0c-105.9,0-98.4,159.9-5.4,159.9h150.5
		c25.3,0,40.1,18,40,33.1c-0.1,17.7-14,35.8-36.3,35.8h-226.4v45.8h246.8c47.4,0,73.3-41.4,72.5-82
		C1984.9,1497.5,1955.9,1458.8,1912.6,1458.8L1912.6,1458.8z"/>
	<path id="path3851" inkscape:connector-curvature="0" sodipodi:nodetypes="ccsscccssscssscc" class="st0" d="M919.1,1618.8
		l53.2-205.1l86.9,171.1c22.1,43.6,46,46.8,69.7,0.2l86.8-170.7l53.7,204.6h53.3l-63.8-232c-7.1-25.8-17.6-42.6-38.9-42.6
		c-21.3,0-33.2,22.1-45.8,47.4L1094,1552l-83.4-166.8c-15.2-30.4-26.9-41.1-42.6-41.1c-23.9,0-34.8,25.9-38,37.7l-64.9,236.9
		L919.1,1618.8z"/>
	<path id="path3855" inkscape:connector-curvature="0" sodipodi:nodetypes="cccccccsssc" class="st0" d="M457.9,1618.8h68.6
		l125.4-205.9l97.7,160.8l-155.3-0.1l-21.9,45.2h275.5L696.2,1382c-14.6-22.8-26.6-37.9-44.3-37.9c-16.3,0-27.1,11.7-42.6,36.2
		L457.9,1618.8z"/>
</g>
</svg>
