<?xml version="1.0" encoding="utf-8"?>
<!-- Generator: Adobe Illustrator 24.2.1, SVG Export Plug-In . SVG Version: 6.00 Build 0)  -->
<svg version="1.1" id="_x31__x2C_5" xmlns="http://www.w3.org/2000/svg" xmlns:xlink="http://www.w3.org/1999/xlink" x="0px"
	 y="0px" viewBox="0 0 196 203" style="enable-background:new 0 0 196 203;" xml:space="preserve">
<style type="text/css">
	.st0{fill:#F3F3F1;}
	.st1{fill:#63A300;}
	.st2{fill:#D5DBE1;}
</style>
<g>
	<path class="st0" d="M151.8,153.8H47.2c-6.3,0-11.3-5.1-11.3-11.3V57.7h127.3v84.9C163.1,148.8,158.1,153.8,151.8,153.8z"/>
</g>
<g>
	<path class="st1" d="M163.1,57.7H35.8v-8.5c0-6.3,5.1-11.3,11.3-11.3h104.7c6.3,0,11.3,5.1,11.3,11.3V57.7z"/>
</g>
<g>
	<path class="st2" d="M50,142.5V57.7H35.8v84.9c0,6.3,5.1,11.3,11.3,11.3h14.1C55.1,153.8,50,148.8,50,142.5z"/>
</g>
<g>
	<path class="st1" d="M59.9,37.9H47.2c-6.3,0-11.3,5.1-11.3,11.3v8.5h12.7v-8.5C48.6,42.9,53.6,37.9,59.9,37.9z"/>
</g>
<g>
	<path d="M167.4,119.9h-8.5V49.2c0-3.9-3.2-7.1-7.1-7.1H47.2c-3.9,0-7.1,3.2-7.1,7.1v70.7h-8.5V49.2c0-8.6,7-15.6,15.6-15.6h104.7
		c8.6,0,15.6,7,15.6,15.6V119.9z"/>
</g>
<g>
	<path class="st1" d="M78.3,124.1c-1.5,0-2.9-0.8-3.7-2.2l-6.2-11.1v13.3h-8.5V94.4c0-1.9,1.3-3.6,3.2-4.1c1.9-0.5,3.8,0.4,4.8,2
		l6.2,11.1V90.2h8.5v29.7c0,1.9-1.3,3.6-3.2,4.1C79,124.1,78.6,124.1,78.3,124.1z"/>
</g>
<g>
	<path class="st1" d="M100.9,124.1h-2.8c-5.5,0-9.9-4.4-9.9-9.9v-14.1c0-5.5,4.4-9.9,9.9-9.9h2.8c5.5,0,9.9,4.4,9.9,9.9v14.1
		C110.8,119.7,106.4,124.1,100.9,124.1z M98.1,98.7c-0.8,0-1.4,0.6-1.4,1.4v14.1c0,0.8,0.6,1.4,1.4,1.4h2.8c0.8,0,1.4-0.6,1.4-1.4
		v-14.1c0-0.8-0.6-1.4-1.4-1.4H98.1z"/>
</g>
<g>
	<path class="st1" d="M123.5,90.2h8.5v33.9h-8.5V90.2z"/>
</g>
<g>
	<path class="st1" d="M116.5,90.2h22.6v8.5h-22.6V90.2z"/>
</g>
<g>
	<path class="st1" d="M157.5,169.4H149c-2.3,0-4.2-1.9-4.2-4.2v-25.5c0-2.3,1.9-4.2,4.2-4.2h8.5c5.5,0,9.9,4.4,9.9,9.9v14.1
		C167.4,164.9,162.9,169.4,157.5,169.4z M153.2,160.9h4.2c0.8,0,1.4-0.6,1.4-1.4v-14.1c0-0.8-0.6-1.4-1.4-1.4h-4.2V160.9z"/>
</g>
<g>
	<path class="st1" d="M40.1,169.4h-8.5v-24c0-5.5,4.4-9.9,9.9-9.9h12.7v8.5H41.5c-0.8,0-1.4,0.6-1.4,1.4V169.4z"/>
</g>
<g>
	<path class="st1" d="M31.6,149.6h22.6v8.5H31.6V149.6z"/>
</g>
<g>
	<path class="st1" d="M134.8,169.4c-1.5,0-2.9-0.8-3.7-2.2l-6.2-11.1v13.3h-8.5v-29.7c0-1.9,1.3-3.6,3.2-4.1c1.9-0.5,3.8,0.4,4.8,2
		l6.2,11.1v-13.3h8.5v29.7c0,1.9-1.3,3.6-3.2,4.1C135.6,169.3,135.2,169.4,134.8,169.4z"/>
</g>
<g>
	<path class="st1" d="M72.6,169.4h-2.8c-5.5,0-9.9-4.4-9.9-9.9v-14.1c0-5.5,4.4-9.9,9.9-9.9h2.8c5.5,0,9.9,4.4,9.9,9.9v14.1
		C82.5,164.9,78.1,169.4,72.6,169.4z M69.8,143.9c-0.8,0-1.4,0.6-1.4,1.4v14.1c0,0.8,0.6,1.4,1.4,1.4h2.8c0.8,0,1.4-0.6,1.4-1.4
		v-14.1c0-0.8-0.6-1.4-1.4-1.4H69.8z"/>
</g>
<g>
	<path class="st1" d="M100.9,169.4h-2.8c-5.5,0-9.9-4.4-9.9-9.9v-24h8.5v24c0,0.8,0.6,1.4,1.4,1.4h2.8c0.8,0,1.4-0.6,1.4-1.4v-24
		h8.5v24C110.8,164.9,106.4,169.4,100.9,169.4z"/>
</g>
<g>
	<path d="M35.8,53.4h127.3v8.5H35.8V53.4z"/>
</g>
</svg>
