<?xml version="1.0" encoding="utf-8"?>
<!-- Generator: Adobe Illustrator 24.2.1, SVG Export Plug-In . SVG Version: 6.00 Build 0)  -->
<svg version="1.1" id="Capa_1" xmlns="http://www.w3.org/2000/svg" xmlns:xlink="http://www.w3.org/1999/xlink" x="0px" y="0px"
	 viewBox="0 0 490.7 350.4" style="enable-background:new 0 0 490.7 350.4;" xml:space="preserve">
<style type="text/css">
	.st0{fill:#63A300;}
</style>
<g>
	<g>
		<circle class="st0" cx="245.3" cy="105.1" r="74.7"/>
	</g>
</g>
<g>
	<g>
		<circle class="st0" cx="394.7" cy="169.1" r="53.3"/>
	</g>
</g>
<g>
	<g>
		<circle class="st0" cx="97.5" cy="169.1" r="53.3"/>
	</g>
</g>
<g>
	<g>
		<path class="st0" d="M245.3,201.1c-76.5,0-138.7,62.2-138.7,138.7c0,5.9,4.8,10.7,10.7,10.7h256c5.9,0,10.7-4.8,10.7-10.7
			C384,263.3,321.8,201.1,245.3,201.1z"/>
	</g>
</g>
<g>
	<g>
		<path class="st0" d="M115.9,246.1c-6.5-1.4-13.2-2.3-19.9-2.3c-52.9,0-96,43.1-96,96c0,5.9,4.8,10.7,10.7,10.7h76.6
			c-1.2-3.3-2-6.9-2-10.7C85.3,304.8,96.8,272.4,115.9,246.1z"/>
	</g>
</g>
<g>
	<g>
		<path class="st0" d="M394.7,243.8c-6.7,0-13.4,0.9-19.9,2.3c19.1,26.4,30.6,58.7,30.6,93.7c0,3.8-0.8,7.3-2,10.7H480
			c5.9,0,10.7-4.8,10.7-10.7C490.7,286.8,447.6,243.8,394.7,243.8z"/>
	</g>
</g>
</svg>
